<?xml version="1.0" standalone="no"?>
<!DOCTYPE svg PUBLIC "-//W3C//DTD SVG 20010904//EN"
 "http://www.w3.org/TR/2001/REC-SVG-20010904/DTD/svg10.dtd">
<svg version="1.0" xmlns="http://www.w3.org/2000/svg"
 width="200.000000pt" height="200.000000pt" viewBox="0 0 200.000000 200.000000"
 preserveAspectRatio="xMidYMid meet">

<g transform="translate(0.000000,200.000000) scale(0.100000,-0.100000)"
fill="#000000" stroke="none">
<path d="M724 1926 c-25 -11 -44 -33 -44 -51 0 -1 9 -5 20 -8 13 -3 24 1 30
14 12 22 69 26 88 7 16 -16 -3 -38 -34 -38 -17 0 -24 -6 -24 -20 0 -14 7 -20
24 -20 52 0 73 -29 44 -58 -19 -19 -86 -15 -99 6 -8 12 -20 17 -35 14 -27 -5
-28 -6 -14 -32 14 -25 82 -43 132 -35 78 13 105 79 48 114 l-30 18 25 11 c29
14 32 42 7 65 -26 24 -100 30 -138 13z"/>
<path d="M180 1795 c-19 -9 -42 -23 -52 -32 -17 -15 -18 -14 -18 10 0 23 -4
27 -30 27 l-30 0 0 -170 0 -170 35 0 35 0 0 110 c0 60 5 120 11 133 13 30 48
47 94 47 59 0 65 -15 65 -161 l0 -129 35 0 35 0 0 120 c0 115 1 122 25 145 18
19 35 25 68 25 70 0 77 -14 77 -163 l0 -127 35 0 35 0 0 128 c0 101 -4 134
-18 162 -34 69 -146 77 -209 14 l-24 -24 -27 30 c-34 37 -92 47 -142 25z"/>
<path d="M796 1533 c-80 -67 -116 -104 -116 -118 0 -12 -9 -31 -20 -43 -11
-12 -20 -26 -20 -32 0 -5 -7 -10 -15 -10 -8 0 -15 -6 -15 -12 0 -7 -38 -53
-85 -103 -47 -49 -85 -91 -85 -92 0 -9 30 0 40 11 6 8 17 13 24 10 7 -3 27 17
46 43 19 26 38 53 42 58 4 6 25 31 47 56 23 25 41 51 41 56 0 6 6 16 14 22 7
6 16 26 20 43 7 35 32 68 51 68 7 0 20 11 29 25 9 14 22 25 29 25 7 0 23 14
37 30 14 17 30 30 37 30 23 0 25 -22 4 -36 -12 -8 -21 -23 -21 -33 0 -10 -8
-29 -18 -42 -10 -13 -21 -32 -25 -41 -3 -10 -16 -18 -27 -18 -16 0 -20 -7 -20
-31 0 -22 -5 -32 -20 -36 -11 -3 -20 -12 -20 -20 0 -9 -6 -13 -14 -10 -7 3
-13 0 -12 -8 1 -14 -200 -235 -215 -235 -5 0 -9 7 -9 15 0 24 -28 17 -32 -7
-3 -23 -3 -23 -31 5 -28 27 -59 29 -37 2 8 -9 8 -15 0 -20 -5 -3 -10 -14 -10
-24 0 -10 -11 -31 -25 -47 -14 -16 -25 -37 -25 -46 0 -10 -4 -18 -10 -18 -6 0
-10 -27 -10 -61 0 -37 4 -58 10 -54 6 3 10 29 10 56 0 33 6 56 16 66 20 21 31
6 40 -57 4 -25 10 -49 14 -55 4 -5 10 -20 13 -32 4 -18 1 -23 -13 -23 -13 0
-20 9 -23 28 l-4 27 -2 -27 c-1 -32 -15 -36 -30 -10 -6 9 -11 12 -11 6 0 -17
44 -54 66 -54 10 0 28 -7 38 -15 11 -8 28 -15 38 -15 10 0 18 -5 18 -12 0 -6
7 -20 16 -30 13 -13 14 -21 5 -31 -9 -11 -2 -14 40 -16 56 -2 72 -7 63 -22 -3
-5 -10 -7 -15 -4 -5 4 -9 -10 -9 -29 0 -35 20 -50 35 -26 4 6 11 8 16 4 14 -8
59 35 59 57 0 22 17 34 23 17 7 -20 17 -4 20 29 1 22 6 29 17 26 13 -4 13 -3
0 9 -8 7 -21 25 -29 40 -8 15 -23 37 -33 48 -11 11 -22 37 -25 58 -8 50 -43
94 -97 120 -53 27 -65 49 -36 69 11 8 20 19 20 26 0 13 56 73 194 208 l88 87
62 -31 c33 -18 65 -38 69 -44 4 -7 14 -13 22 -13 7 0 15 -3 17 -7 2 -5 25 -19
53 -33 27 -14 68 -37 91 -52 47 -32 59 -34 51 -14 -4 9 1 16 11 18 12 2 10 7
-10 20 -25 16 -26 16 -21 -2 5 -18 3 -18 -36 2 -43 21 -48 27 -30 45 6 6 9 21
7 34 -4 33 -42 33 -46 1 -4 -25 -30 -41 -41 -26 -7 11 -36 29 -71 46 -14 7
-27 15 -30 18 -3 3 -23 15 -45 26 -32 17 -41 28 -43 53 -3 30 -3 30 25 16 15
-8 38 -15 50 -15 12 0 24 -4 28 -9 3 -6 26 -13 50 -17 25 -3 47 -10 50 -14 3
-5 24 -11 48 -15 59 -10 117 -37 118 -55 0 -10 2 -11 6 -2 6 16 24 15 59 -3
16 -8 36 -15 45 -15 20 0 34 -16 60 -67 20 -39 27 -151 10 -168 -5 -6 -12 -32
-16 -60 -6 -46 -5 -49 9 -30 14 19 15 16 16 -45 1 -36 3 -125 6 -197 4 -93 2
-133 -6 -133 -20 0 -32 55 -28 142 2 47 0 84 -4 81 -5 -2 -8 -13 -8 -23 0 -10
-4 -22 -10 -25 -5 -3 -10 -15 -10 -26 0 -11 -4 -17 -10 -14 -13 8 -13 62 1 67
7 2 8 21 1 63 -5 33 -10 48 -11 33 0 -15 -5 -29 -10 -33 -12 -7 -25 115 -16
144 4 14 -1 31 -14 50 -12 16 -21 34 -21 40 0 6 -4 11 -10 11 -13 0 -13 -13 0
-26 5 -5 12 -89 16 -187 4 -98 11 -180 16 -183 4 -3 8 -32 8 -65 0 -52 -3 -61
-22 -69 -16 -7 2 -9 62 -4 47 3 91 11 98 17 11 8 13 3 10 -29 -2 -25 -8 -39
-18 -41 -68 -8 -90 -15 -90 -28 0 -18 33 -20 59 -3 24 15 53 3 49 -19 -4 -21
-53 -32 -152 -32 l-68 -1 4 65 c2 36 0 65 -4 65 -5 0 -8 -43 -7 -95 l1 -96 62
6 c83 9 100 18 46 24 -25 3 28 6 117 7 102 1 167 5 176 12 7 6 45 12 84 14 59
2 73 5 76 20 3 10 14 18 27 18 16 0 20 4 16 16 -3 9 -6 22 -6 30 0 9 -5 12
-11 9 -6 -4 -8 -14 -5 -22 4 -9 1 -13 -6 -10 -7 2 -22 -1 -33 -7 -14 -8 -290
-37 -301 -32 -1 1 -5 53 -8 116 l-7 116 35 12 c30 11 40 11 66 -3 37 -19 53
-12 24 10 -18 13 -16 14 22 15 22 0 45 -5 51 -11 8 -8 13 -8 18 1 4 7 -1 14
-14 17 -15 4 -21 13 -21 34 0 24 4 29 25 29 18 0 25 -5 25 -19 0 -11 -6 -21
-12 -24 -20 -7 -7 -14 40 -22 35 -6 42 -4 42 9 0 18 35 22 45 6 10 -15 35 -12
35 5 0 9 9 15 24 15 48 0 56 -9 56 -65 0 -30 5 -57 10 -60 6 -4 10 22 10 69
l0 76 30 0 30 0 -2 93 -2 92 -3 -86 -4 -87 -37 -6 c-57 -9 -94 -7 -87 5 4 5 4
21 1 35 -8 31 -39 32 -60 2 l-16 -22 0 23 c0 20 -4 22 -29 16 -23 -5 -29 -2
-34 14 -4 16 -17 21 -66 27 -34 4 -64 11 -67 15 -7 13 -51 11 -59 -1 -5 -8
-11 -7 -21 1 -12 10 -14 -1 -14 -69 0 -45 5 -84 10 -87 6 -4 8 -11 4 -16 -16
-26 -24 13 -24 116 0 65 -4 116 -10 120 -12 8 -13 82 -1 89 4 3 11 35 15 71 6
58 4 71 -14 101 -12 19 -27 34 -33 34 -11 0 -62 40 -169 130 -21 18 -42 29
-48 25 -14 -9 -52 24 -43 38 4 6 0 8 -10 4 -11 -4 -14 -2 -11 7 3 8 -13 28
-35 46 -45 35 -57 29 -14 -7 14 -13 22 -23 16 -23 -13 0 -53 43 -53 57 0 6 -7
14 -16 17 -10 4 -13 2 -9 -7 4 -6 -4 0 -17 14 -13 14 -30 23 -37 21 -10 -3
-10 0 0 16 19 30 -3 52 -51 52 -33 0 -52 -12 -154 -97z m216 -1 c2 -5 57 -52
123 -106 119 -98 119 -98 76 -91 -23 4 -55 13 -69 21 -15 8 -39 14 -54 14 -16
0 -28 4 -28 9 0 5 -16 12 -35 15 -19 4 -53 15 -75 25 -35 16 -38 20 -25 31 8
7 15 18 15 25 0 33 62 82 72 57z m253 -170 c-3 -3 -11 0 -18 7 -9 10 -8 11 6
5 10 -3 15 -9 12 -12z m-745 -197 c-7 -9 -15 -13 -17 -11 -7 7 7 26 19 26 6 0
6 -6 -2 -15z m-95 -262 c4 -20 13 -46 21 -57 8 -11 14 -30 14 -41 -1 -19 -1
-19 -15 -2 -7 11 -17 36 -20 58 -4 21 -11 41 -16 45 -12 7 -12 34 0 34 5 0 12
-17 16 -37z m1139 -48 c-4 -8 -1 -15 5 -15 6 0 11 5 11 10 0 6 4 10 9 10 6 0
3 -12 -5 -27 -7 -16 -14 -38 -14 -50 0 -13 -5 -23 -11 -23 -6 0 -9 13 -7 30 2
19 -3 34 -11 39 -17 11 -7 41 13 41 10 0 13 -6 10 -15z m-247 -102 c-3 -10 -5
-2 -5 17 0 19 2 27 5 18 2 -10 2 -26 0 -35z m438 36 c12 -19 -3 -22 -27 -5
l-22 16 21 0 c12 0 25 -5 28 -11z m-155 -59 c0 -5 -4 -10 -10 -10 -5 0 -10 5
-10 10 0 6 5 10 10 10 6 0 10 -4 10 -10z m-1042 -69 c-12 -4 -28 17 -28 38 0
8 8 3 19 -10 11 -14 15 -26 9 -28z m803 -44 c-4 -61 -11 -59 -11 3 0 29 3 50
7 46 4 -4 6 -26 4 -49z m-686 -6 c-3 -6 -11 -11 -17 -11 -6 0 -6 6 2 15 14 17
26 13 15 -4z"/>
<path d="M1200 1422 c0 -12 19 -26 26 -19 2 2 -2 10 -11 17 -9 8 -15 8 -15 2z"/>
<path d="M1228 1134 c-4 -5 0 -18 8 -29 15 -20 17 -12 5 19 -4 11 -10 15 -13
10z"/>
<path d="M1500 1076 c0 -20 5 -36 10 -36 6 0 10 13 10 29 0 17 -4 33 -10 36
-6 4 -10 -8 -10 -29z"/>
<path d="M1992 1050 c0 -14 2 -19 5 -12 2 6 2 18 0 25 -3 6 -5 1 -5 -13z"/>
<path d="M1492 990 c0 -19 2 -27 5 -17 2 9 2 25 0 35 -3 9 -5 1 -5 -18z"/>
<path d="M1320 951 c0 -17 5 -31 10 -31 6 0 10 11 10 24 0 14 -4 28 -10 31 -6
4 -10 -7 -10 -24z"/>
<path d="M1350 948 c0 -8 9 -23 20 -33 11 -10 20 -15 20 -11 0 4 -9 19 -20 33
-13 17 -20 20 -20 11z"/>
<path d="M360 875 c0 -8 5 -15 10 -15 6 0 10 7 10 15 0 8 -4 15 -10 15 -5 0
-10 -7 -10 -15z"/>
<path d="M1405 761 c-3 -5 -1 -12 5 -16 5 -3 10 1 10 9 0 18 -6 21 -15 7z"/>
<path d="M1980 677 c0 -36 4 -68 9 -71 8 -5 3 124 -5 133 -2 2 -4 -25 -4 -62z"/>
<path d="M1505 660 c3 -5 13 -10 21 -10 8 0 14 5 14 10 0 6 -9 10 -21 10 -11
0 -17 -4 -14 -10z"/>
<path d="M1577 613 c-6 -32 -3 -38 12 -28 13 8 15 55 2 55 -5 0 -11 -12 -14
-27z"/>
<path d="M1805 620 c-3 -5 1 -10 9 -10 9 0 16 5 16 10 0 6 -4 10 -9 10 -6 0
-13 -4 -16 -10z"/>
<path d="M562 611 c-10 -6 -10 -10 2 -20 12 -10 15 -9 13 8 -1 12 -1 21 -2 21
0 0 -6 -4 -13 -9z"/>
<path d="M1685 543 c-22 -2 -49 -8 -60 -13 -11 -5 -36 -11 -55 -12 -24 -2 -36
-8 -38 -21 -3 -17 3 -18 95 -12 54 4 104 13 111 19 12 12 7 48 -7 44 -3 -1
-24 -3 -46 -5z"/>
<path d="M615 490 c-3 -5 1 -10 10 -10 9 0 13 5 10 10 -3 6 -8 10 -10 10 -2 0
-7 -4 -10 -10z"/>
<path d="M658 443 c7 -3 16 -2 19 1 4 3 -2 6 -13 5 -11 0 -14 -3 -6 -6z"/>
<path d="M1978 443 c19 -8 14 -21 -10 -26 -20 -4 -19 -4 5 -6 21 -1 27 4 27
19 0 13 -6 20 -17 19 -11 0 -13 -3 -5 -6z"/>
<path d="M1817 433 c-4 -3 -7 -28 -7 -53 0 -46 -1 -48 -32 -54 -18 -4 -89 -9
-158 -13 -69 -3 -129 -9 -135 -13 -5 -5 -74 -11 -152 -15 l-143 -8 0 31 c0 17
-4 34 -10 37 -6 4 -10 -11 -10 -38 0 -42 2 -45 31 -51 17 -3 51 -6 74 -6 36 0
44 -4 48 -22 8 -30 5 -31 -29 -13 -20 10 -58 15 -121 15 -84 0 -93 -2 -107
-22 -9 -12 -16 -35 -16 -50 0 -15 -5 -30 -10 -33 -5 -3 -10 -17 -10 -30 0 -35
47 -54 159 -61 53 -4 104 -13 115 -20 14 -9 99 -13 357 -14 292 -1 339 1 339
14 0 8 -4 18 -10 21 -5 3 -10 26 -10 51 0 45 -25 84 -54 84 -17 0 -76 32 -76
41 0 7 77 19 121 19 28 0 29 2 29 45 l0 45 -80 0 c-77 0 -80 1 -86 26 -4 14
-4 41 -1 60 5 32 -1 43 -16 27z m-430 -239 c-3 -3 -12 -4 -19 -1 -8 3 -5 6 6
6 11 1 17 -2 13 -5z"/>
<path d="M642 395 c0 -16 2 -22 5 -12 2 9 2 23 0 30 -3 6 -5 -1 -5 -18z"/>
<path d="M611 344 c0 -11 3 -14 6 -6 3 7 2 16 -1 19 -3 4 -6 -2 -5 -13z"/>
<path d="M628 331 c-9 -12 -18 -17 -20 -11 -5 15 -38 1 -38 -16 0 -8 -6 -14
-14 -14 -7 0 -16 -9 -19 -20 -3 -11 -12 -20 -20 -20 -8 0 -18 -8 -21 -17 -15
-40 -38 -73 -52 -73 -7 0 -14 -5 -14 -10 0 -6 -12 -15 -26 -20 -14 -6 -24 -16
-22 -22 7 -19 158 -11 181 10 16 15 17 15 11 -1 -7 -20 25 -24 44 -5 9 9 15 9
24 0 7 -7 21 -12 32 -12 12 0 33 -6 48 -14 17 -9 76 -16 165 -20 96 -4 131 -2
114 5 -13 5 -29 8 -34 6 -11 -3 -97 85 -97 99 0 12 -106 114 -143 139 -21 13
-31 15 -40 6 -16 -16 -27 -14 -36 11 l-8 21 -15 -22z m132 -122 c0 -18 -2 -19
-15 -9 -8 7 -15 16 -15 21 0 5 7 9 15 9 9 0 15 -9 15 -21z m40 6 c0 -8 -4 -15
-9 -15 -13 0 -22 16 -14 24 11 11 23 6 23 -9z m-112 -34 c3 -8 -1 -12 -9 -9
-7 2 -15 10 -17 17 -3 8 1 12 9 9 7 -2 15 -10 17 -17z"/>
</g>
</svg>
